<svg width="76" height="68" viewBox="0 0 76 68" fill="none" xmlns="http://www.w3.org/2000/svg">
<path d="M37.9999 54.6252C42.6874 54.6252 46.6724 52.9852 49.9549 49.7052C53.2374 46.4252 54.8774 42.4402 54.8749 37.7502C54.8724 33.0602 53.2324 29.0765 49.9549 25.799C46.6774 22.5215 42.6924 20.8802 37.9999 20.8752C33.3074 20.8702 29.3237 22.5115 26.0487 25.799C22.7737 29.0865 21.1324 33.0702 21.1249 37.7502C21.1174 42.4302 22.7587 46.4152 26.0487 49.7052C29.3387 52.9952 33.3224 54.6352 37.9999 54.6252ZM37.9999 47.1252C35.3749 47.1252 33.1562 46.219 31.3437 44.4065C29.5312 42.594 28.6249 40.3752 28.6249 37.7502C28.6249 35.1252 29.5312 32.9065 31.3437 31.094C33.1562 29.2815 35.3749 28.3752 37.9999 28.3752C40.6249 28.3752 42.8437 29.2815 44.6562 31.094C46.4687 32.9065 47.3749 35.1252 47.3749 37.7502C47.3749 40.3752 46.4687 42.594 44.6562 44.4065C42.8437 46.219 40.6249 47.1252 37.9999 47.1252ZM7.99994 67.7502C5.93744 67.7502 4.17244 67.0165 2.70494 65.549C1.23744 64.0815 0.502439 62.3152 0.499939 60.2502V15.2502C0.499939 13.1877 1.23494 11.4227 2.70494 9.95524C4.17494 8.48774 5.93994 7.75274 7.99994 7.75024H19.8124L26.7499 0.250244H49.2499L56.1874 7.75024H67.9999C70.0624 7.75024 71.8287 8.48524 73.2987 9.95524C74.7687 11.4252 75.5024 13.1902 75.4999 15.2502V60.2502C75.4999 62.3127 74.7662 64.079 73.2987 65.549C71.8312 67.019 70.0649 67.7527 67.9999 67.7502H7.99994Z" fill="#284243"/>
</svg>
