<svg width="27" height="27" viewBox="0 0 27 27" fill="none" xmlns="http://www.w3.org/2000/svg">
<path d="M12.3333 2.73334H10.1999C4.86661 2.73334 2.73328 4.86667 2.73328 10.2V16.6C2.73328 21.9333 4.86661 24.0667 10.1999 24.0667H16.5999C21.9333 24.0667 24.0666 21.9333 24.0666 16.6V14.4667" stroke="white" stroke-width="1.5" stroke-linecap="round" stroke-linejoin="round"/>
<path d="M17.7094 3.82131L9.30402 12.2266C8.98402 12.5466 8.66402 13.176 8.60002 13.6346L8.14135 16.8453C7.97068 18.008 8.79202 18.8186 9.95468 18.6586L13.1654 18.2C13.6134 18.136 14.2427 17.816 14.5734 17.496L22.9787 9.09064C24.4294 7.63998 25.112 5.95464 22.9787 3.82131C20.8454 1.68798 19.16 2.37064 17.7094 3.82131V3.82131Z" stroke="white" stroke-width="1.5" stroke-miterlimit="10" stroke-linecap="round" stroke-linejoin="round"/>
<path d="M16.504 5.02667C16.8577 6.28264 17.528 7.42674 18.4506 8.34939C19.3733 9.27203 20.5174 9.94231 21.7734 10.296" stroke="white" stroke-width="1.5" stroke-miterlimit="10" stroke-linecap="round" stroke-linejoin="round"/>
</svg>
