<svg width="82" height="78" viewBox="0 0 82 78" fill="none" xmlns="http://www.w3.org/2000/svg">
<path fill-rule="evenodd" clip-rule="evenodd" d="M60.2789 0.9025C56.8139 0.4375 52.4039 0.4375 46.8989 0.4375H34.4451C28.9439 0.4375 24.5301 0.4375 21.0651 0.9025C17.4764 1.3825 14.4839 2.40625 12.1101 4.7725C9.63512 7.24 8.61887 10.3787 8.16137 14.1625L8.13887 14.35L8.15012 15.0813C7.34087 15.6101 6.58816 16.2208 5.90387 16.9037C3.09887 19.7125 1.85387 23.2712 1.26137 27.6662C0.687622 31.9412 0.687622 37.3975 0.687622 44.29V46.3338C0.691372 52.4275 0.736372 57.4225 1.26137 61.3338C1.85387 65.7288 3.09887 69.2875 5.90387 72.0962C8.71262 74.9012 12.2714 76.1462 16.6664 76.7388C20.9414 77.3125 26.3976 77.3125 33.2901 77.3125H48.7101C55.6026 77.3125 61.0626 77.3125 65.3339 76.7388C69.7289 76.1462 73.2876 74.9012 76.0964 72.0962C78.9014 69.2875 80.1464 65.7288 80.7389 61.3338C81.3126 57.0588 81.3126 51.6025 81.3126 44.71V44.29C81.3126 37.3975 81.3126 31.9375 80.7389 27.6662C80.1464 23.2712 78.9014 19.7125 76.0964 16.9037C75.2326 16.0393 74.2593 15.2917 73.2014 14.68V14.3312L73.1826 14.1625C72.7251 10.3787 71.7126 7.24 69.2339 4.7725C66.8601 2.41 63.8714 1.3825 60.2789 0.9025ZM6.31637 47.65C6.32762 53.1813 6.39887 57.325 6.83762 60.5875C7.34387 64.3563 8.29637 66.5312 9.88262 68.1175C11.4689 69.7038 13.6439 70.6562 17.4164 71.1625C21.2714 71.68 26.3489 71.6875 33.5001 71.6875H48.5001C55.6514 71.6875 60.7326 71.68 64.5876 71.1625C67.4489 70.78 69.3914 70.1388 70.8576 69.1562L60.7814 60.085C59.3612 58.8065 57.549 58.048 55.6416 57.9335C53.7341 57.8191 51.8443 58.3555 50.2814 59.455L49.1676 60.2425C47.1812 61.6383 44.7659 62.2884 42.3472 62.0785C39.9285 61.8686 37.6614 60.8121 35.9451 59.095L19.8576 43.0075C18.8146 41.9647 17.4142 41.3574 15.9401 41.3087C14.466 41.2599 13.0285 41.7734 11.9189 42.745L6.31637 47.65ZM64.5426 55.9038L74.2476 64.6413C74.6451 63.5312 74.9451 62.2037 75.1626 60.5837C75.6801 56.7325 75.6876 51.6512 75.6876 44.5C75.6876 37.3488 75.6801 32.2712 75.1626 28.4125C74.6564 24.6437 73.7039 22.4688 72.1176 20.8825C70.5314 19.2963 68.3564 18.3438 64.5839 17.8375C60.7326 17.32 55.6514 17.3125 48.5001 17.3125H33.5001C26.3489 17.3125 21.2714 17.32 17.4126 17.8375C13.6439 18.3438 11.4689 19.2963 9.88262 20.8825C8.29637 22.4688 7.34387 24.6438 6.83762 28.4163C6.42887 31.4425 6.33887 35.2262 6.32012 40.1725L8.21762 38.5112C10.4015 36.6007 13.2299 35.5917 16.1299 35.6885C19.0299 35.7852 21.7847 36.9806 23.8364 39.0325L39.9239 55.12C40.7044 55.8992 41.7346 56.3782 42.8334 56.4729C43.9322 56.5675 45.0291 56.2717 45.9314 55.6375L47.0489 54.85C49.6535 53.0196 52.8022 52.1271 55.98 52.3185C59.1577 52.5099 62.1765 53.7739 64.5426 55.9038ZM16.0776 8.7625C15.1776 9.65875 14.5326 10.8287 14.1051 12.7112C14.9524 12.5277 15.8069 12.3789 16.6664 12.265C20.9414 11.6912 26.3976 11.6912 33.2901 11.6912H48.7101C55.6026 11.6912 61.0626 11.6912 65.3339 12.265C65.9751 12.3512 66.5976 12.4525 67.2089 12.5688C66.7776 10.7688 66.1401 9.63625 65.2664 8.7625C64.1114 7.61125 62.5026 6.88 59.5326 6.4825C56.4839 6.07 52.4489 6.06625 46.6926 6.06625H34.6514C28.8951 6.06625 24.8601 6.07375 21.8114 6.47875C18.8414 6.88 17.2326 7.61125 16.0776 8.7625Z" fill="#284243"/>
<path fill-rule="evenodd" clip-rule="evenodd" d="M61.625 22.9379C60.517 22.9379 59.4198 23.1561 58.3961 23.5801C57.3724 24.0042 56.4423 24.6257 55.6588 25.4092C54.8753 26.1926 54.2538 27.1228 53.8298 28.1465C53.4057 29.1702 53.1875 30.2673 53.1875 31.3754C53.1875 32.4834 53.4057 33.5806 53.8298 34.6043C54.2538 35.6279 54.8753 36.5581 55.6588 37.3416C56.4423 38.1251 57.3724 38.7466 58.3961 39.1706C59.4198 39.5946 60.517 39.8129 61.625 39.8129C63.8628 39.8129 66.0089 38.9239 67.5912 37.3416C69.1736 35.7592 70.0625 33.6131 70.0625 31.3754C70.0625 29.1376 69.1736 26.9915 67.5912 25.4092C66.0089 23.8268 63.8628 22.9379 61.625 22.9379ZM61.625 28.5629C60.8791 28.5629 60.1637 28.8592 59.6363 29.3866C59.1088 29.9141 58.8125 30.6294 58.8125 31.3754C58.8125 32.1213 59.1088 32.8367 59.6363 33.3641C60.1637 33.8915 60.8791 34.1879 61.625 34.1879C62.3709 34.1879 63.0863 33.8915 63.6137 33.3641C64.1412 32.8367 64.4375 32.1213 64.4375 31.3754C64.4375 30.6294 64.1412 29.9141 63.6137 29.3866C63.0863 28.8592 62.3709 28.5629 61.625 28.5629Z" fill="#284243"/>
</svg>
