<svg width="45" height="46" viewBox="0 0 45 46" fill="none" xmlns="http://www.w3.org/2000/svg">
<g clip-path="url(#clip0_142_1464)">
<path d="M23.67 1.12749C23.5415 0.934894 23.3675 0.776979 23.1634 0.667759C22.9593 0.55854 22.7314 0.501394 22.5 0.501394C22.2685 0.501394 22.0406 0.55854 21.8365 0.667759C21.6324 0.776979 21.4584 0.934894 21.33 1.12749L12.8925 13.7837C12.7515 13.9955 12.6707 14.2415 12.6585 14.4956C12.6464 14.7497 12.7034 15.0023 12.8234 15.2266C12.9435 15.4508 13.1221 15.6383 13.3403 15.769C13.5585 15.8998 13.8081 15.9689 14.0625 15.9691H14.3381L8.6512 25.0675C8.51816 25.2804 8.44452 25.525 8.43794 25.7759C8.43135 26.0268 8.49205 26.275 8.61373 26.4945C8.73542 26.7141 8.91366 26.897 9.12995 27.0245C9.34623 27.1519 9.59268 27.2191 9.8437 27.2191H10.3809L5.77402 36.4328C5.66658 36.6472 5.61576 36.8855 5.62638 37.1251C5.637 37.3646 5.70871 37.5975 5.83469 37.8016C5.96067 38.0056 6.13673 38.1741 6.34616 38.2909C6.55558 38.4077 6.7914 38.469 7.0312 38.4691H19.6875V45.5003H25.3125V38.4691H37.9687C38.2085 38.469 38.4443 38.4077 38.6538 38.2909C38.8632 38.1741 39.0392 38.0056 39.1652 37.8016C39.2912 37.5975 39.3629 37.3646 39.3735 37.1251C39.3841 36.8855 39.3333 36.6472 39.2259 36.4328L34.6218 27.2191H35.159C35.41 27.2191 35.6565 27.1519 35.8728 27.0245C36.0891 26.897 36.2673 26.7141 36.389 26.4945C36.5107 26.275 36.5714 26.0268 36.5648 25.7759C36.5582 25.525 36.4846 25.2804 36.3515 25.0675L30.6618 15.9691H30.9375C31.1918 15.9689 31.4414 15.8998 31.6596 15.769C31.8778 15.6383 32.0564 15.4508 32.1765 15.2266C32.2965 15.0023 32.3535 14.7497 32.3414 14.4956C32.3292 14.2415 32.2484 13.9955 32.1075 13.7837L23.67 1.12749Z" fill="#E2817A"/>
</g>
<defs>
<clipPath id="clip0_142_1464">
<rect width="45" height="45" fill="white" transform="translate(0 0.5)"/>
</clipPath>
</defs>
</svg>
